<?xml version="1.0" encoding="UTF-8"?>
<svg xmlns="http://www.w3.org/2000/svg" width="368" height="156" viewBox="0 0 368 156">
  <title>transparent paperclip vector</title>
  <path d="M 48.00 106.00 L 48.00 110.00 L 52.00 116.00 L 61.00 120.00 L 71.00 121.00 L 72.00 120.00 L 78.00 120.00 L 79.00 119.00 L 81.00 119.00 L 88.00 116.00 L 94.00 110.00 L 96.00 106.00 L 96.00 101.00 L 93.00 96.00 L 88.00 93.00 L 86.00 93.00 L 82.00 91.00 L 68.00 91.00 L 67.00 92.00 L 64.00 92.00 L 57.00 95.00 L 51.00 100.00 Z
    M 52.00 110.00 L 52.00 105.00 L 55.00 101.00 L 56.00 101.00 L 61.00 97.00 L 63.00 97.00 L 67.00 95.00 L 70.00 95.00 L 71.00 94.00 L 80.00 94.00 L 81.00 95.00 L 87.00 96.00 L 92.00 101.00 L 92.00 103.00 L 93.00 104.00 L 92.00 105.00 L 92.00 107.00 L 87.00 112.00 L 86.00 112.00 L 84.00 114.00 L 82.00 114.00 L 79.00 116.00 L 76.00 116.00 L 75.00 117.00 L 62.00 117.00 L 55.00 114.00 Z
    M 335.00 61.00 L 332.00 54.00 L 328.00 50.00 L 322.00 47.00 L 316.00 46.00 L 315.00 45.00 L 303.00 45.00 L 302.00 46.00 L 298.00 46.00 L 291.00 49.00 L 254.00 49.00 L 253.00 50.00 L 240.00 50.00 L 239.00 51.00 L 220.00 52.00 L 219.00 53.00 L 212.00 53.00 L 211.00 54.00 L 197.00 55.00 L 196.00 56.00 L 191.00 56.00 L 190.00 57.00 L 185.00 57.00 L 184.00 58.00 L 178.00 58.00 L 177.00 59.00 L 173.00 59.00 L 172.00 60.00 L 168.00 60.00 L 167.00 61.00 L 162.00 61.00 L 161.00 62.00 L 157.00 62.00 L 156.00 63.00 L 153.00 63.00 L 152.00 64.00 L 148.00 64.00 L 147.00 65.00 L 144.00 65.00 L 143.00 66.00 L 139.00 66.00 L 138.00 67.00 L 135.00 67.00 L 134.00 68.00 L 131.00 68.00 L 130.00 69.00 L 119.00 71.00 L 115.00 73.00 L 112.00 73.00 L 105.00 76.00 L 102.00 76.00 L 101.00 77.00 L 87.00 81.00 L 84.00 83.00 L 80.00 84.00 L 79.00 85.00 L 79.00 87.00 L 83.00 87.00 L 84.00 86.00 L 86.00 86.00 L 87.00 85.00 L 89.00 85.00 L 90.00 84.00 L 92.00 84.00 L 93.00 83.00 L 95.00 83.00 L 96.00 82.00 L 98.00 82.00 L 99.00 81.00 L 101.00 81.00 L 108.00 78.00 L 111.00 78.00 L 118.00 75.00 L 121.00 75.00 L 122.00 74.00 L 125.00 74.00 L 126.00 73.00 L 129.00 73.00 L 130.00 72.00 L 133.00 72.00 L 134.00 71.00 L 137.00 71.00 L 138.00 70.00 L 141.00 70.00 L 142.00 69.00 L 146.00 69.00 L 147.00 68.00 L 150.00 68.00 L 151.00 67.00 L 155.00 67.00 L 156.00 66.00 L 159.00 66.00 L 160.00 65.00 L 165.00 65.00 L 166.00 64.00 L 170.00 64.00 L 171.00 63.00 L 175.00 63.00 L 176.00 62.00 L 181.00 62.00 L 182.00 61.00 L 187.00 61.00 L 188.00 60.00 L 194.00 60.00 L 195.00 59.00 L 200.00 59.00 L 201.00 58.00 L 215.00 57.00 L 216.00 56.00 L 234.00 55.00 L 235.00 54.00 L 246.00 54.00 L 247.00 53.00 L 262.00 53.00 L 263.00 52.00 L 294.00 52.00 L 301.00 49.00 L 312.00 48.00 L 313.00 49.00 L 318.00 49.00 L 325.00 52.00 L 331.00 59.00 L 331.00 69.00 L 330.00 71.00 L 321.00 79.00 L 315.00 80.00 L 314.00 81.00 L 309.00 81.00 L 308.00 80.00 L 309.00 78.00 L 308.00 77.00 L 305.00 77.00 L 302.00 79.00 L 299.00 79.00 L 294.00 74.00 L 293.00 72.00 L 293.00 67.00 L 296.00 64.00 L 298.00 64.00 L 299.00 63.00 L 306.00 63.00 L 306.00 61.00 L 305.00 60.00 L 296.00 60.00 L 292.00 63.00 L 292.00 64.00 L 290.00 66.00 L 290.00 69.00 L 289.00 70.00 L 290.00 71.00 L 290.00 75.00 L 296.00 81.00 L 289.00 85.00 L 287.00 85.00 L 284.00 87.00 L 282.00 87.00 L 279.00 89.00 L 277.00 89.00 L 274.00 91.00 L 272.00 91.00 L 271.00 92.00 L 269.00 92.00 L 268.00 93.00 L 266.00 93.00 L 265.00 94.00 L 263.00 94.00 L 262.00 95.00 L 260.00 95.00 L 253.00 98.00 L 250.00 98.00 L 246.00 100.00 L 239.00 101.00 L 235.00 103.00 L 232.00 103.00 L 231.00 104.00 L 228.00 104.00 L 227.00 105.00 L 223.00 105.00 L 222.00 106.00 L 219.00 106.00 L 218.00 107.00 L 215.00 107.00 L 214.00 108.00 L 205.00 109.00 L 204.00 110.00 L 199.00 110.00 L 198.00 111.00 L 188.00 112.00 L 187.00 113.00 L 182.00 113.00 L 181.00 114.00 L 175.00 114.00 L 174.00 115.00 L 167.00 115.00 L 166.00 116.00 L 159.00 116.00 L 158.00 117.00 L 150.00 117.00 L 149.00 118.00 L 137.00 118.00 L 136.00 119.00 L 94.00 120.00 L 94.00 123.00 L 127.00 123.00 L 128.00 122.00 L 154.00 121.00 L 155.00 120.00 L 171.00 119.00 L 172.00 118.00 L 178.00 118.00 L 179.00 117.00 L 184.00 117.00 L 185.00 116.00 L 197.00 115.00 L 198.00 114.00 L 202.00 114.00 L 203.00 113.00 L 207.00 113.00 L 208.00 112.00 L 212.00 112.00 L 213.00 111.00 L 217.00 111.00 L 218.00 110.00 L 221.00 110.00 L 222.00 109.00 L 225.00 109.00 L 226.00 108.00 L 230.00 108.00 L 231.00 107.00 L 238.00 106.00 L 242.00 104.00 L 245.00 104.00 L 249.00 102.00 L 252.00 102.00 L 256.00 100.00 L 259.00 100.00 L 260.00 99.00 L 274.00 95.00 L 277.00 93.00 L 279.00 93.00 L 282.00 91.00 L 284.00 91.00 L 287.00 89.00 L 294.00 87.00 L 301.00 83.00 L 303.00 84.00 L 318.00 84.00 L 326.00 80.00 L 332.00 74.00 L 334.00 70.00 Z" fill="#1E3B8A" fill-rule="evenodd"/>
</svg>
