<?xml version="1.0" encoding="UTF-8"?>
<svg xmlns="http://www.w3.org/2000/svg" width="128" height="50" viewBox="0 0 128 50">
  <title>transparent paperclip vector</title>
  <path d="M 8.00 36.00 L 8.00 41.00 L 10.00 43.00 L 18.00 43.00 L 19.00 42.00 L 21.00 42.00 L 23.00 40.00 L 24.00 40.00 L 25.00 39.00 L 25.00 35.00 L 22.00 32.00 L 15.00 32.00 L 14.00 33.00 L 12.00 33.00 L 10.00 35.00 L 9.00 35.00 Z
    M 9.00 40.00 L 9.00 37.00 L 11.00 35.00 L 12.00 35.00 L 15.00 33.00 L 20.00 33.00 L 21.00 34.00 L 22.00 34.00 L 24.00 36.00 L 24.00 38.00 L 19.00 42.00 L 12.00 42.00 Z
    M 90.00 29.00 L 87.00 29.00 L 86.00 30.00 L 84.00 30.00 L 83.00 31.00 L 81.00 31.00 L 80.00 32.00 L 78.00 32.00 L 77.00 33.00 L 75.00 33.00 L 74.00 34.00 L 72.00 34.00 L 71.00 35.00 L 68.00 35.00 L 67.00 36.00 L 64.00 36.00 L 63.00 37.00 L 61.00 37.00 L 60.00 38.00 L 56.00 38.00 L 55.00 39.00 L 51.00 39.00 L 50.00 40.00 L 45.00 40.00 L 44.00 41.00 L 38.00 41.00 L 37.00 42.00 L 26.00 42.00 L 25.00 43.00 L 36.00 43.00 L 37.00 42.00 L 43.00 42.00 L 44.00 41.00 L 49.00 41.00 L 50.00 40.00 L 54.00 40.00 L 55.00 39.00 L 59.00 39.00 L 60.00 38.00 L 63.00 38.00 L 64.00 37.00 L 67.00 37.00 L 68.00 36.00 L 70.00 36.00 L 71.00 35.00 L 74.00 35.00 L 75.00 34.00 L 77.00 34.00 L 78.00 33.00 L 80.00 33.00 L 81.00 32.00 L 83.00 32.00 L 84.00 31.00 L 86.00 31.00 L 87.00 30.00 Z
    M 19.00 30.00 L 20.00 30.00 L 21.00 29.00 L 23.00 29.00 L 19.00 29.00 Z
    M 115.00 14.00 L 114.00 13.00 L 114.00 12.00 L 112.00 10.00 L 111.00 10.00 L 110.00 9.00 L 101.00 9.00 L 100.00 10.00 L 98.00 10.00 L 97.00 11.00 L 87.00 11.00 L 86.00 12.00 L 80.00 12.00 L 79.00 13.00 L 74.00 13.00 L 73.00 14.00 L 68.00 14.00 L 67.00 15.00 L 63.00 15.00 L 62.00 16.00 L 59.00 16.00 L 58.00 17.00 L 55.00 17.00 L 54.00 18.00 L 51.00 18.00 L 50.00 19.00 L 47.00 19.00 L 46.00 20.00 L 44.00 20.00 L 43.00 21.00 L 40.00 21.00 L 39.00 22.00 L 37.00 22.00 L 34.00 24.00 L 32.00 24.00 L 31.00 25.00 L 29.00 25.00 L 28.00 26.00 L 26.00 26.00 L 25.00 27.00 L 24.00 27.00 L 28.00 27.00 L 31.00 25.00 L 33.00 25.00 L 34.00 24.00 L 36.00 24.00 L 37.00 23.00 L 39.00 23.00 L 40.00 22.00 L 42.00 22.00 L 43.00 21.00 L 46.00 21.00 L 47.00 20.00 L 49.00 20.00 L 50.00 19.00 L 53.00 19.00 L 54.00 18.00 L 57.00 18.00 L 58.00 17.00 L 61.00 17.00 L 62.00 16.00 L 66.00 16.00 L 67.00 15.00 L 71.00 15.00 L 72.00 14.00 L 76.00 14.00 L 77.00 13.00 L 83.00 13.00 L 84.00 12.00 L 93.00 12.00 L 94.00 11.00 L 100.00 11.00 L 101.00 10.00 L 103.00 10.00 L 104.00 9.00 L 109.00 9.00 L 110.00 10.00 L 111.00 10.00 L 113.00 12.00 L 113.00 13.00 L 114.00 14.00 L 114.00 17.00 L 113.00 18.00 L 113.00 19.00 L 111.00 21.00 L 110.00 21.00 L 109.00 22.00 L 106.00 22.00 L 105.00 21.00 L 102.00 22.00 L 99.00 19.00 L 99.00 17.00 L 101.00 15.00 L 103.00 15.00 L 100.00 15.00 L 98.00 18.00 L 99.00 19.00 L 99.00 20.00 L 101.00 22.00 L 99.00 24.00 L 98.00 24.00 L 93.00 27.00 L 91.00 27.00 L 95.00 27.00 L 96.00 26.00 L 97.00 26.00 L 102.00 23.00 L 108.00 23.00 L 109.00 22.00 L 112.00 21.00 L 114.00 18.00 L 114.00 16.00 L 115.00 15.00 Z" fill="#1E3B8A" fill-rule="evenodd"/>
</svg>
