<?xml version="1.0" encoding="UTF-8"?>
<svg xmlns="http://www.w3.org/2000/svg" width="322" height="142" viewBox="0 0 322 142">
  <title>transparent paperclip vector</title>
  <path d="M 47.00 43.00 L 47.00 45.00 L 50.00 48.00 L 50.00 49.00 L 57.00 56.00 L 58.00 55.00 L 58.00 53.00 L 55.00 50.00 L 56.00 49.00 L 58.00 49.00 L 61.00 51.00 L 63.00 51.00 L 66.00 53.00 L 73.00 55.00 L 78.00 58.00 L 80.00 58.00 L 83.00 60.00 L 85.00 60.00 L 93.00 64.00 L 98.00 65.00 L 101.00 67.00 L 103.00 67.00 L 104.00 68.00 L 106.00 68.00 L 107.00 69.00 L 109.00 69.00 L 110.00 70.00 L 112.00 70.00 L 113.00 71.00 L 115.00 71.00 L 122.00 74.00 L 125.00 74.00 L 126.00 75.00 L 132.00 76.00 L 136.00 78.00 L 139.00 78.00 L 140.00 79.00 L 143.00 79.00 L 144.00 80.00 L 148.00 80.00 L 149.00 81.00 L 152.00 81.00 L 153.00 82.00 L 156.00 82.00 L 157.00 83.00 L 161.00 83.00 L 162.00 84.00 L 166.00 84.00 L 167.00 85.00 L 171.00 85.00 L 172.00 86.00 L 176.00 86.00 L 177.00 87.00 L 182.00 87.00 L 183.00 88.00 L 188.00 88.00 L 189.00 89.00 L 203.00 90.00 L 204.00 91.00 L 213.00 91.00 L 214.00 92.00 L 224.00 92.00 L 225.00 93.00 L 263.00 93.00 L 264.00 92.00 L 267.00 92.00 L 271.00 95.00 L 273.00 95.00 L 276.00 97.00 L 279.00 97.00 L 280.00 98.00 L 287.00 98.00 L 288.00 97.00 L 291.00 97.00 L 293.00 96.00 L 299.00 90.00 L 300.00 86.00 L 301.00 85.00 L 301.00 79.00 L 298.00 73.00 L 294.00 69.00 L 285.00 64.00 L 279.00 63.00 L 278.00 62.00 L 270.00 62.00 L 267.00 60.00 L 265.00 60.00 L 257.00 56.00 L 249.00 54.00 L 246.00 52.00 L 244.00 52.00 L 243.00 51.00 L 241.00 51.00 L 234.00 48.00 L 231.00 48.00 L 230.00 47.00 L 228.00 47.00 L 221.00 44.00 L 218.00 44.00 L 214.00 42.00 L 207.00 41.00 L 203.00 39.00 L 200.00 39.00 L 199.00 38.00 L 196.00 38.00 L 195.00 37.00 L 192.00 37.00 L 191.00 36.00 L 187.00 36.00 L 186.00 35.00 L 183.00 35.00 L 182.00 34.00 L 178.00 34.00 L 177.00 33.00 L 174.00 33.00 L 173.00 32.00 L 169.00 32.00 L 168.00 31.00 L 164.00 31.00 L 163.00 30.00 L 158.00 30.00 L 157.00 29.00 L 153.00 29.00 L 152.00 28.00 L 147.00 28.00 L 146.00 27.00 L 140.00 27.00 L 139.00 26.00 L 133.00 26.00 L 132.00 25.00 L 125.00 25.00 L 124.00 24.00 L 120.00 24.00 L 119.00 23.00 L 120.00 22.00 L 120.00 19.00 L 121.00 18.00 L 120.00 17.00 L 120.00 15.00 L 117.00 12.00 L 110.00 9.00 L 96.00 9.00 L 95.00 10.00 L 92.00 10.00 L 90.00 11.00 L 88.00 13.00 L 87.00 13.00 L 83.00 18.00 L 83.00 23.00 L 88.00 28.00 L 92.00 29.00 L 93.00 30.00 L 108.00 30.00 L 117.00 26.00 L 118.00 27.00 L 127.00 27.00 L 128.00 28.00 L 134.00 28.00 L 135.00 29.00 L 141.00 29.00 L 142.00 30.00 L 148.00 30.00 L 149.00 31.00 L 154.00 31.00 L 155.00 32.00 L 159.00 32.00 L 160.00 33.00 L 170.00 34.00 L 171.00 35.00 L 179.00 36.00 L 180.00 37.00 L 184.00 37.00 L 185.00 38.00 L 188.00 38.00 L 189.00 39.00 L 192.00 39.00 L 193.00 40.00 L 196.00 40.00 L 197.00 41.00 L 208.00 43.00 L 209.00 44.00 L 215.00 45.00 L 219.00 47.00 L 222.00 47.00 L 223.00 48.00 L 225.00 48.00 L 232.00 51.00 L 235.00 51.00 L 236.00 52.00 L 244.00 54.00 L 247.00 56.00 L 255.00 58.00 L 258.00 60.00 L 260.00 60.00 L 268.00 64.00 L 270.00 64.00 L 271.00 65.00 L 279.00 65.00 L 280.00 66.00 L 283.00 66.00 L 291.00 70.00 L 296.00 75.00 L 298.00 79.00 L 298.00 86.00 L 297.00 88.00 L 290.00 94.00 L 288.00 94.00 L 287.00 95.00 L 278.00 95.00 L 277.00 94.00 L 275.00 94.00 L 273.00 92.00 L 275.00 90.00 L 274.00 89.00 L 268.00 89.00 L 265.00 86.00 L 265.00 84.00 L 264.00 83.00 L 264.00 80.00 L 267.00 76.00 L 271.00 75.00 L 277.00 78.00 L 278.00 77.00 L 277.00 75.00 L 273.00 73.00 L 266.00 73.00 L 263.00 76.00 L 262.00 78.00 L 262.00 86.00 L 264.00 89.00 L 263.00 90.00 L 222.00 90.00 L 221.00 89.00 L 210.00 89.00 L 209.00 88.00 L 202.00 88.00 L 201.00 87.00 L 194.00 87.00 L 193.00 86.00 L 187.00 86.00 L 186.00 85.00 L 175.00 84.00 L 174.00 83.00 L 170.00 83.00 L 169.00 82.00 L 165.00 82.00 L 164.00 81.00 L 155.00 80.00 L 154.00 79.00 L 151.00 79.00 L 150.00 78.00 L 147.00 78.00 L 146.00 77.00 L 135.00 75.00 L 131.00 73.00 L 128.00 73.00 L 124.00 71.00 L 121.00 71.00 L 120.00 70.00 L 118.00 70.00 L 117.00 69.00 L 103.00 65.00 L 100.00 63.00 L 95.00 62.00 L 92.00 60.00 L 90.00 60.00 L 87.00 58.00 L 85.00 58.00 L 82.00 56.00 L 80.00 56.00 L 77.00 54.00 L 75.00 54.00 L 65.00 49.00 L 63.00 49.00 L 60.00 47.00 L 56.00 46.00 L 55.00 44.00 L 56.00 43.00 L 61.00 42.00 L 62.00 40.00 L 61.00 39.00 L 55.00 40.00 L 54.00 41.00 L 48.00 42.00 Z
    M 92.00 26.00 L 93.00 25.00 L 106.00 25.00 L 107.00 26.00 L 103.00 28.00 L 97.00 28.00 L 96.00 27.00 L 93.00 27.00 Z
    M 86.00 22.00 L 86.00 18.00 L 89.00 15.00 L 93.00 13.00 L 95.00 13.00 L 96.00 12.00 L 100.00 12.00 L 101.00 11.00 L 111.00 12.00 L 115.00 14.00 L 118.00 18.00 L 118.00 20.00 L 115.00 23.00 L 101.00 23.00 L 100.00 22.00 L 90.00 22.00 L 90.00 23.00 L 88.00 24.00 Z" fill="#1E3B8A" fill-rule="evenodd"/>
</svg>
